<?xml version="1.0" encoding="utf-8"?>
<!-- Generator: Adobe Illustrator 25.0.0, SVG Export Plug-In . SVG Version: 6.00 Build 0)  -->
<svg version="1.1" id="Capa_1" xmlns="http://www.w3.org/2000/svg" xmlns:xlink="http://www.w3.org/1999/xlink" x="0px" y="0px"
	 viewBox="0 0 288.1 83.8" style="enable-background:new 0 0 288.1 83.8;" xml:space="preserve">
<g>
	<path d="M15.5,22h14.9v0.4H15.5v38.9h12.1v0.4H2.5v-0.4h7.2V22.4H2.5V22h7.2v-5.5c0.2-2.1,0.8-4.2,1.9-6c1.3-2.4,3.1-4.6,5.3-6.4
		c1.5-1.3,3.3-2.3,5.2-3.1c1.6-0.7,3.3-1,5-1.1c2.3,0,3.4,1,3.4,3c0,1.2-0.4,2.4-0.9,3.4L18.9,4.3c-1-0.1-2,0.3-2.8,1
		c-1.1,1-1.9,2.2-2.5,3.5c-0.7,1.6-1,3.2-1,4.9C12.7,16.8,13.7,19.7,15.5,22z"/>
	<path d="M33.1,22v39.2h9.7v0.4H17.6v-0.4h9.7V22.4h-9.7V22H33.1z M27.3,15.5c-0.8-0.7-1.2-1.8-1.2-2.8c0-1.1,0.4-2.2,1.2-2.9
		c1.5-1.6,4.1-1.6,5.7-0.1c0,0,0.1,0.1,0.1,0.1c0.8,0.8,1.2,1.8,1.2,2.9c0,1.1-0.4,2.1-1.2,2.8c-0.7,0.8-1.8,1.2-2.9,1.2
		C29,16.7,28,16.2,27.3,15.5z"/>
	<path d="M164.1,10.1c-1,5-2.4,9.9-4.1,14.7c-1.8,5-3.5,7.8-5,8.5c-8.2,3.6-17.6,5.4-28.3,5.4c-8.8,0-17.5-1.2-25.9-3.8
		c-9.9-3.1-19.6-6.8-29-11.1c4.2,3.5,6.3,9.4,6.3,17.8c0,5.9-1.1,10.7-3.3,14.2s-5.9,5.9-11.1,7c-2.4,0.1-4.7-0.5-6.9-1.5
		c-1.5,0.7-3.1,1.2-4.8,1.5c-4.7,0.2-9.2-2-11.9-5.8c-2.9-3.9-4.3-8.8-4.3-14.8c-0.1-3.4,0.3-6.7,1.2-10c0.8-2.6,2.3-5,4.3-6.8
		c2.5-2.1,5.3-3.7,8.5-4.7c2.7-0.1,5.3,0.5,7.7,1.6c1.2-0.7,2.5-1.2,3.9-1.6c3.3-0.1,6.6,0.8,9.4,2.5c8.3,3.4,17,6,25.8,7.7
		c8.5,1.9,17.2,2.9,25.9,3c11.2,0,20.4-1.9,27.8-5.6c7.3-3.8,11.8-9.9,13.5-18.4L164.1,10.1z M56,61c-2.9-1.7-5.1-4.3-6.3-7.4
		c-1.5-3.6-2.3-7.4-2.2-11.3c-0.1-3.9,0.5-7.7,1.7-11.3c1.2-3,3.2-5.5,5.9-7.2c-1.2-1.5-3.1-2.3-5-2.3c-2.9,0-4.9,1.7-6.1,5.1
		c-1.3,4.2-1.9,8.7-1.8,13.1c-0.2,5.5,0.7,11,2.5,16.2c1.6,4.3,4.2,6.5,7.8,6.5C53.7,62.3,55,61.9,56,61z M54.7,50.6
		c0.4,2.8,1.4,5.6,3,8c1.6-3.1,2.4-7.8,2.4-14.1c0-3.7-0.3-7.5-1-11.2c-0.4-2.9-1.5-5.7-3-8.3c-1.6,3.2-2.4,8-2.4,14.6
		C53.7,43.3,54,47,54.7,50.6z M70,57.1c1.3-4.1,1.9-8.3,1.8-12.6c0.1-5.6-0.7-11.1-2.4-16.4c-1.6-4.5-4.2-6.7-7.6-6.7
		c-1.3,0-2.5,0.4-3.5,1.2c5.5,3.1,8.3,9.5,8.3,19.2c0.1,3.8-0.5,7.6-1.8,11.2c-1.1,2.9-3.1,5.5-5.7,7.2c1.3,1.4,3.1,2.2,5,2.2
		C66.8,62.3,68.8,60.6,70,57.1z"/>
	<path d="M112.3,22v0.4H99.3c2.4,1.3,4.4,3.4,5.6,5.9c1.4,2.7,2.1,5.8,2,8.8c0,4.3-1,7.8-2.9,10.4s-5.3,4.7-10.1,6.2
		c-1.6,0-3.3-0.3-4.8-1c-1.6-0.6-3-1.5-4.3-2.7c-1.9,0.8-2.8,1.9-2.8,3.3c-0.1,1.6,1.1,3,2.7,3.3c2.4,0.6,4.8,0.8,7.3,0.8h3.3
		c3.8,0,6.7,0.1,8.5,0.3c1.6,0.1,3.2,0.7,4.6,1.7c1.2,0.9,1.8,2.5,1.8,4.7c0.1,4.9-1.9,9.6-5.4,13c-3.6,3.6-8.8,5.8-15.5,6.5
		c-1.4,0.1-2.5,0.2-3.1,0.2c-2.7,0.1-5.4-0.6-7.8-2c-2-1.3-3.1-3.5-3-5.8c0.2-2.4,1-4.7,2.5-6.7c1.7-2.5,3.9-4.6,6.4-6.2
		c-1.8-0.2-3.6-0.8-5.1-1.8c-1.3-0.8-2.1-2.3-2.1-3.8c0-3.1,2.5-5.6,7.6-7.6c-1.7-1.5-3.1-3.4-4-5.5c-1-2.2-1.4-4.6-1.4-7
		c0-4.7,1.1-8.3,3.2-10.8c2.1-2.4,5.4-4.4,9.9-5.8c2.2,0,4.3,0.4,6.3,1.4L112.3,22z M88.1,62.7c-1.5,0.3-2.9,0.7-4.3,1.2
		c-1.8,0.7-2.7,2.8-2.7,6.1c0,0.7,0,1.4,0.1,2.2c0.3,2.8,1.4,5.4,3.3,7.4c1.9,2,4.5,3.1,7.2,3c2.5,0,4.9-0.7,6.9-2.2
		c1.9-1.4,3.5-3.3,4.6-5.4c1-1.9,1.5-4,1.6-6.1c0.1-2-1-3.9-2.7-4.9c-1.8-1.1-4.7-1.6-8.5-1.6C91.7,62.3,89.9,62.4,88.1,62.7z
		 M99.5,48.8c1.1-3.1,1.7-6.4,1.6-9.7c0.1-4.3-0.6-8.6-2.2-12.6c-1.4-3.5-3.7-5.2-6.7-5.2c-4.4,0-6.7,4.7-6.7,14.1
		c0,5.2,0.7,9.4,2,12.5s3.6,4.7,6.7,4.7C96.7,52.8,98.4,51.5,99.5,48.8z"/>
	<path d="M118.9,22v39.2h9.7v0.4h-25.2v-0.4h9.6V22.4h-9.6V22H118.9z M113.1,15.5c-0.8-0.7-1.2-1.8-1.2-2.8c0-1.1,0.4-2.1,1.2-2.9
		c1.5-1.6,4.1-1.6,5.7-0.1c0,0,0.1,0.1,0.1,0.1c0.8,0.8,1.2,1.8,1.2,2.9c0,1.1-0.4,2.1-1.2,2.8C117.3,17,114.7,17.1,113.1,15.5
		C113.1,15.5,113.1,15.5,113.1,15.5z"/>
	<path d="M159.8,22.4h-7.2v38.9h7.2v0.4h-13.1V50.4c-0.9,3.3-2.5,6.5-4.6,9.2c-2,2.3-4,3.4-6.3,3.4c-1.6,0-3.2-0.6-4.4-1.7
		c-1.4-1.1-2.5-2.5-3.3-4.1c-0.8-1.3-1.2-2.9-1.3-4.4V22.4h-7.2V22h40.1V22.4z M142.2,58.9c2.2-2.9,3.8-6.3,4.6-9.9V22.4h-14v28.7
		c0,3.2,0.1,5.5,0.2,7.1c0,1.2,0.4,2.3,1,3.3c0.6,0.7,1.6,1.1,2.5,1C138.4,62.5,140.2,61.3,142.2,58.9z"/>
	<path d="M183.4,22h0.6l-2.4,17.4l-1.1-0.5l-0.5-7.6c-0.2-3.3-1.2-5.8-2.9-7.6c-1.5-1.7-3.6-2.6-5.9-2.6c-1.8-0.1-3.6,0.6-4.8,1.9
		c-1.2,1.3-1.9,3-1.9,4.7c0,2.1,0.8,4.1,2.2,5.5c2.1,2,4.3,3.8,6.7,5.4c2.7,1.7,5.2,3.7,7.4,5.9c1.7,1.9,2.6,4.3,2.6,6.9
		c0,2-0.6,4-1.7,5.8c-1.2,1.8-2.8,3.2-4.7,4.2c-2.1,1.1-4.5,1.6-6.9,1.6c-3.6,0.1-7.1-1.2-9.8-3.6c-2.7-2.4-4.1-6.1-4.1-11.1
		l6.2-8.8v3.9c-1.3,3.2-2,6.7-2.2,10.2c0,3.3,0.9,5.7,2.7,7c1.8,1.3,4,2,6.2,2c2.3,0.2,4.6-0.7,6.3-2.3c1.5-1.6,2.2-3.8,2.2-5.9
		c0-1.7-0.4-3.4-1.3-4.9c-0.8-1.3-1.8-2.5-3-3.5c-1.1-0.9-2.8-2.1-4.9-3.5c-2.5-1.5-4.7-3.3-6.8-5.3c-1.6-1.7-2.4-4-2.3-6.3
		c-0.1-2.8,1-5.4,3.1-7.3c2.1-1.9,4.8-3,7.6-2.9c2.1-0.1,4.2,0.6,5.9,1.8c1.6,1.2,2.8,3,3.4,4.9c0.1,0.2,0.1,0.5,0.2,0.7
		c0.1,0.4,0.3,0.6,0.6,0.6c0.3,0,0.6-0.2,0.7-0.5l0.4-0.8L183.4,22z"/>
	<path d="M208.6,58.5c2-3.1,3.1-6.8,2.9-10.6h0.4c0.2,3.8-0.9,7.6-3.1,10.8c-2,2.8-5,4.3-9,4.3c-5,0-8.9-1.9-11.4-5.8
		s-3.9-8.8-3.9-14.9c-0.1-3.3,0.3-6.6,1.3-9.9c0.8-2.6,2.3-4.9,4.3-6.7c2.5-2.1,5.4-3.8,8.6-5c3.9,0,6.8,0.8,8.8,2.3
		c2,1.6,3.4,3.9,3.9,6.4c0.7,3.5,1,7,0.9,10.5h-21.5c0,6.8,0.6,12.3,1.9,16.4s3.6,6.3,7.1,6.3C203.7,62.6,206.6,61.2,208.6,58.5z
		 M192.8,26.6c-1.4,4.2-2,8.6-1.9,13h15.3c0-5.9-0.5-10.4-1.4-13.5s-2.9-4.6-5.8-4.6C196.1,21.5,194.1,23.2,192.8,26.6z"/>
	<path d="M224.1,60.2c-1.9-2.2-3.1-4.9-3.5-7.7V82H232v0.4h-24.5V82h7.2V22.4h-7.2V22h13.1v9.1c0.3-2.9,1.5-5.6,3.4-7.7
		c1.7-1.8,4.1-2.8,6.5-2.7c4.6,0,8,1.9,10,5.6c2,3.7,3.1,8.8,3.1,15.1c0,6.9-1.1,12.2-3.2,16c-1.9,3.6-5.8,5.8-9.9,5.6
		C228.1,63,225.7,62,224.1,60.2z M223.3,25c-1.8,2.4-2.7,5.7-2.7,9.9v13.9c0,2.4,0.4,4.9,1.3,7.2c0.7,1.8,1.9,3.5,3.4,4.7
		c1.3,1,2.9,1.6,4.6,1.6c2.1,0.1,4-1,5-2.8c1.1-2.1,1.8-4.4,1.9-6.7c0.3-2.6,0.4-6,0.4-10.3c0-4.6-0.1-8.4-0.4-11.2
		c-0.2-2.5-0.8-4.9-2-7.1c-1-1.8-2.9-2.9-4.9-2.8C227.3,21.4,224.8,22.8,223.3,25z"/>
	<path d="M236.8,60.2c-1.9-2.2-3.1-4.9-3.5-7.7V82h11.4v0.4h-24.4V82h7.2V22.4h-7.2V22h13v9.1c0.3-2.8,1.5-5.5,3.4-7.7
		c1.7-1.8,4.1-2.8,6.5-2.7c4.6,0,8,1.9,10,5.6c2,3.7,3.1,8.8,3.1,15c0,6.9-1.1,12.2-3.2,16c-1.9,3.6-5.8,5.8-9.9,5.6
		C240.8,63,238.4,62,236.8,60.2z M236,25c-1.8,2.4-2.7,5.7-2.7,9.9v13.9c0,2.4,0.4,4.9,1.3,7.2c0.7,1.9,1.9,3.5,3.4,4.7
		c1.3,1,2.9,1.6,4.6,1.6c2.1,0.1,4-1,5-2.8c1.1-2.1,1.8-4.4,1.9-6.7c0.2-2.6,0.4-6,0.4-10.3c0-4.6-0.1-8.4-0.4-11.2
		c-0.2-2.5-0.9-4.9-2-7.1c-1-1.8-2.9-2.9-4.9-2.8C239.9,21.4,237.5,22.8,236,25z"/>
	<path d="M281.7,58.5c2.1-3.1,3.1-6.8,2.9-10.6h0.5c0.2,3.8-0.9,7.6-3.1,10.8c-2,2.8-5,4.3-9,4.3c-5,0-8.8-1.9-11.4-5.8
		c-2.6-3.8-3.9-8.8-3.9-14.9c-0.1-3.3,0.3-6.6,1.3-9.9c0.8-2.6,2.3-4.9,4.3-6.7c2.5-2.1,5.4-3.8,8.5-5c3.9,0,6.8,0.8,8.8,2.3
		c2,1.6,3.4,3.9,3.9,6.4c0.7,3.5,1.1,7,1,10.5H264c0,6.8,0.6,12.3,1.9,16.4c1.3,4.2,3.6,6.3,7.1,6.3
		C276.9,62.6,279.8,61.2,281.7,58.5z M265.9,26.6c-1.4,4.2-2,8.6-1.9,13h15.3c0-5.9-0.5-10.4-1.4-13.5c-1-3.1-2.9-4.6-5.8-4.6
		C269.3,21.5,267.2,23.2,265.9,26.6z"/>
</g>
</svg>
