<svg xmlns="http://www.w3.org/2000/svg" viewBox="358 788 348 281" width="120" height="120" aria-hidden="true">
<path d="M520.5 892.9C518.5 892.5 516.5 892.1 514.5 891.8C511 891.3 507.8 890.2 505.7 887.1C505.5 886.8 505.3 886.4 505.3 886.1C505.3 885.7 505.5 885.4 505.6 885.1C506.8 885.3 507.9 885.5 509.3 885.8C509.4 886.8 509.6 888 509.8 889.6C510.7 889.1 511.4 888.7 512.3 888.2C513.6 889.4 514.8 891.2 517.5 890.5C518 889.6 518.5 888.6 519 887.7C518.3 886.4 517.7 885.2 517.1 884C517.3 883.8 517.5 883.6 517.7 883.4C519.1 884.2 520.6 885.1 522 885.9C521.7 888.4 523 891.1 520.5 892.9Z" fill="#001FFF"/>
<path d="M527.8 851C528.4 851.3 528.9 851.6 529.5 851.9C529.7 851.4 529.9 850.9 530.1 850.4C530.4 851.8 530.1 853.2 531 854.6C532.8 857.3 531.5 862.2 529 863.8C528.3 864.3 527.2 864.2 526.2 864.4C526.4 863.6 526.8 862.5 527.1 861.5H527C527.6 861.5 528.2 861.6 528.8 861.7C528.8 860.7 529.4 859.4 527.6 859.1H527.7C527.7 856.4 527.8 853.7 527.9 850.9L527.8 851Z" fill="#001FFF"/>
<path d="M509.5 922.6C509.6 924.1 510.1 925.6 509.7 927C508 934 506.7 940.2 499.7 945.3C502.1 941.6 504.5 937.9 506.8 934.1C507.3 933.3 507.4 932.2 507.6 931.2C508.3 928.3 508.9 925.5 509.5 922.6Z" fill="#001FFF"/>
<path d="M498 895.4C502.3 895.9 506.1 898.3 510.6 897.9V897.7C509.6 899.1 508.3 899.9 506.7 899.3C503.7 898.1 501 898.4 498.3 899.9C496.3 898.3 498.6 896.8 498.2 895.3H498.1L498 895.4Z" fill="#001FFF"/>
<path d="M510.6 898C511 897.7 511.7 897.1 511.8 897.2C513.3 898.2 514.8 899.2 516.3 900.3H516.6C516.6 900.3 516.7 900.1 516.8 900C517.2 901.5 516.7 902.4 515.1 902.8C513.5 901.1 512 899.5 510.5 897.9V898.1L510.6 898Z" fill="#001FFF"/>
<path d="M378.3 930C379.8 927.7 376.2 924.5 380.4 923.5C380.8 925 381.1 926.5 381.5 928.2C380.5 928.7 379.5 929.3 378.2 930H378.3Z" fill="#001FFF"/>
<path d="M591.1 969C593.7 969.4 596.6 969.8 599.5 970.2C595.7 972.1 593.5 971.7 591.1 969Z" fill="#001FFF"/>
<path d="M569.5 936C572.3 938.5 573.3 942.1 571.8 945.6C571.3 942.8 571 940.6 570.6 938.4C570.4 937.6 569.9 936.9 569.6 936.1L569.5 936Z" fill="#001FFF"/>
<path d="M588.1 966.7C585.8 964.8 583.5 963 581.2 961.1C581.3 960.9 581.5 960.8 581.6 960.6C584 962.3 586.4 964.1 588.8 965.8C588.6 966.1 588.4 966.4 588.2 966.6L588.1 966.7Z" fill="#001FFF"/>
<path d="M501.9 918.5C502.8 918.1 503.6 917.6 504.5 917.3C506.2 916.8 508 916.3 510.4 915.7C509.4 916.6 508.8 917.7 508 917.9C506 918.3 504 918.3 502 918.4C502 918.5 502 918.5 502 918.5H501.9Z" fill="#001FFF"/>
<path d="M514.5 908C514.5 907.4 514.7 906.8 514.8 906.1C512.6 905.9 510.7 905.7 508.7 905.6C508.7 905.4 508.7 905.2 508.7 905C510.5 905 512.3 904.6 514.1 905C516.3 905.4 515.6 906.9 514.6 908.2L514.5 908Z" fill="#001FFF"/>
<path d="M499.4 908.6C502.8 908.9 506.2 909.3 509.6 909.6C509.1 909.9 508.5 910.7 508.1 910.6C505.2 910.1 501.9 910.8 499.4 908.6Z" fill="#001FFF"/>
<path d="M476 960.7C474.7 957.9 473.5 955.1 472.2 952.4C472.4 952.4 472.7 952.2 472.9 952.1C474 955 476.6 957.2 476 960.8V960.7Z" fill="#001FFF"/>
<path d="M501.9 918.4C498.5 918.4 495.9 917.5 494.3 916C496.6 916.4 498.9 916.7 501.2 917.2C501.5 917.2 501.7 918 501.9 918.5V918.4Z" fill="#001FFF"/>
<path d="M480.9 944.1C479.7 947.2 479.9 950.2 481.2 953.3C478.7 950.5 478.6 946.4 480.9 944.2V944.1Z" fill="#001FFF"/>
<path d="M399.3 908.6C400.7 907 402.1 905.4 403.5 903.9C403.7 904.1 404 904.3 404.2 904.5C402.9 906.1 401.5 907.7 400.2 909.3C399.9 909.1 399.6 908.9 399.2 908.7L399.3 908.6Z" fill="#001FFF"/>
<path d="M511.5 873.1C513.7 873.9 515.9 874.6 518.1 875.4C514.8 876.8 513.9 876.5 511.6 873.1H511.5Z" fill="#001FFF"/>
<path d="M527.8 851C526.8 852.5 525.9 853.9 524.7 855.7C524.1 851.2 524.4 850.8 527.8 851Z" fill="#001FFF"/>
<path d="M507.3 954.1C505.5 956.3 503.7 958.6 501.9 960.9C502.5 957.6 505.3 956.3 507.3 954.2V954.1Z" fill="#001FFF"/>
<path d="M606 939.3C604.7 936.8 602.7 934.4 603.8 931.2C604.5 933.9 605.3 936.6 606 939.3Z" fill="#001FFF"/>
<path d="M498.1 948.6C497 949.4 495.9 950.2 494.7 951C494.5 950.8 494.3 950.5 494.2 950.3C495.3 949.5 496.4 948.7 497.5 947.9C497.7 948.1 497.9 948.4 498.1 948.6Z" fill="#001FFF"/>
<path d="M515.6 884.2C513.2 884.2 511.7 884.1 510.2 884C510.2 883.7 510.2 883.5 510.2 883.2C511.7 882.7 513.3 882.4 515.6 884.2Z" fill="#001FFF"/>
<path d="M602.8 807.7C604.1 810.5 601.6 811.5 601.1 813.2C600.9 813.2 600.6 813 600.4 812.9C601.2 811.2 601.9 809.6 602.8 807.7Z" fill="#001FFF"/>
<path d="M499.1 902.8C501.2 903.4 502.9 903.8 504.7 904.3C502.9 904.7 501.1 904.3 499.1 902.8Z" fill="#001FFF"/>
<path d="M520.5 893C520.2 895.8 519.5 898.4 516.9 900C518.1 897.6 519.3 895.3 520.6 892.9L520.5 893Z" fill="#001FFF"/>
<path d="M483.1 964.5C480.7 963.2 478.3 962 476 960.7C478.4 962 480.8 963.3 483.2 964.6L483.1 964.5Z" fill="#001FFF"/>
<path d="M484.5 954.4C485.5 953.9 486.3 953.5 487.7 952.9C486.6 954 485.5 954.6 484.5 954.4Z" fill="#001FFF"/>
<path d="M494.4 963.3C493.6 963.8 492.8 964.2 491.9 964.7C491.9 964.3 491.7 964 491.8 964C492.5 963.5 493.3 963.1 494 962.7H494.3C494.3 962.7 494.3 962.9 494.3 963.2L494.4 963.3Z" fill="#001FFF"/>
<path d="M539.1 849.4C538.2 849.2 537.7 849.3 537.6 849.1C537.4 848.8 537.4 848.3 537.4 847.8C537.7 847.8 538.2 847.6 538.4 847.8C538.6 848 538.7 848.4 539.2 849.5L539.1 849.4Z" fill="#001FFF"/>
<path d="M530.1 850.4C531.6 848.2 528.4 849.3 528.5 847.9C529.4 847.9 530.2 848.1 531.6 848.2C531 849.2 530.6 849.8 530.1 850.4Z" fill="#001FFF"/>
<path d="M575.2 941.1C576.9 940 577.8 940.2 577.8 942.5C576.9 942 576.1 941.6 575.2 941.1Z" fill="#001FFF"/>
<path d="M574.9 931.7C575.4 932.9 575.9 934.1 576.4 935.3C574.8 934.5 574.5 933.2 575 931.7H574.9Z" fill="#001FFF"/>
<path d="M583.8 955.5C584.4 955.9 585 956.3 585.6 956.7C585.6 956.8 585.4 957 585.4 957.1C584.7 956.7 584.1 956.4 583.5 956C583.6 955.8 583.7 955.6 583.8 955.5Z" fill="#001FFF"/>
<path d="M523.8 875.8C523.1 876 522.5 876.1 521.8 876.2C521.8 876.2 521.8 875.8 521.6 875.6C522.2 875.4 522.9 875.3 523.5 875.1C523.5 875.3 523.6 875.6 523.7 875.8H523.8Z" fill="#001FFF"/>
<path d="M509.5 922.6C509.9 921.4 510.3 920.3 510.7 919.1C511.3 920.7 510.6 921.7 509.4 922.6H509.5Z" fill="#001FFF"/>
<path d="M524.4 880C524.2 880.5 524.1 881.1 523.9 881.7C523.8 881.7 523.6 881.7 523.5 881.7C523.5 881.1 523.5 880.6 523.5 880C523.8 880 524.1 880 524.4 880Z" fill="#001FFF"/>
<path d="M483.2 964.6C484.2 964.8 485.3 964.9 486.3 965.1C484.9 966 484.2 964.9 483.1 964.5L483.2 964.6Z" fill="#001FFF"/>
<path d="M509.6 909.6C510.5 909.9 511.3 910.2 512.6 910.6C510.9 911.3 510.2 910.4 509.5 909.6H509.6Z" fill="#001FFF"/>
<path d="M604.3 965.1C603.6 966.1 603 967.1 602.4 968.1C602.3 968.1 602.2 967.9 602 967.8C602.8 966.9 603.5 966 604.3 965.1Z" fill="#001FFF"/>
<path d="M393.6 915C394.1 914.2 394.6 913.4 395.2 912.6C395.4 912.7 395.5 912.8 395.7 912.9C395.1 913.7 394.6 914.5 394 915.2C393.9 915.2 393.7 915 393.6 914.9V915Z" fill="#001FFF"/>
<path d="M522.2 879.4C522 879.9 521.7 880.4 521.5 880.9C521.4 880.9 521.3 880.9 521.2 880.7C521.4 880.2 521.6 879.7 521.8 879.2C522 879.2 522.1 879.3 522.2 879.4Z" fill="#001FFF"/>
<path d="M548.7 826.7C547.1 828.1 545.8 828.1 544.8 826.7C546 825.5 547 826.3 548.7 826.7Z" fill="#001FFF"/>
<path d="M672.8 787.7C673.2 788.1 673.5 788.8 673.9 789.7L676.3 781.9L678.8 782.7L672.3 803.9L670 803.2L670.7 801C669.8 801.8 668.9 802.2 667.9 802.4C666.9 802.6 665.9 802.4 664.9 802.2C663.2 801.7 661.9 800.5 661.1 798.7C660.3 796.9 660.3 794.7 661 792.4C661.7 790.2 662.8 788.4 664.5 787.1C666.2 785.8 668 785.5 670.2 786.1C671.4 786.5 672.3 787 672.9 787.8L672.8 787.7ZM663.5 797.5C663.9 798.8 664.8 799.7 666.3 800.2C667.5 800.6 668.6 800.4 669.7 799.5C670.8 798.7 671.6 797.3 672.2 795.4C672.8 793.4 672.8 791.9 672.3 790.7C671.8 789.5 671 788.7 669.8 788.4C668.5 788 667.3 788.2 666.2 788.9C665.1 789.6 664.2 791 663.6 792.9C663.1 794.6 663 796.1 663.4 797.4L663.5 797.5Z" fill="black"/>
<path d="M690.3 793C691.2 793.8 691.7 794.7 692 795.7C692.3 796.6 692.3 797.7 692.2 798.7C692.2 799.5 691.9 800.6 691.4 802.2L680.2 798.8C679.8 800.4 679.7 801.8 680.2 802.9C680.6 804.1 681.5 804.9 683 805.3C684.3 805.7 685.5 805.6 686.6 804.9C687.2 804.5 687.7 804 688.1 803.4L690.6 804.2C690.4 804.7 689.9 805.3 689.4 805.9C688.9 806.5 688.2 806.9 687.6 807.2C686.6 807.7 685.5 808 684.2 807.9C683.5 807.9 682.8 807.7 682 807.5C680.1 806.9 678.7 805.7 677.8 803.9C676.9 802.1 676.8 799.9 677.6 797.4C678.4 794.9 679.6 793.1 681.4 792C683.2 790.9 685.2 790.6 687.4 791.3C688.5 791.6 689.5 792.2 690.3 793ZM689.4 799.4C689.6 798.2 689.7 797.3 689.4 796.5C689.1 795 688.1 794 686.4 793.5C685.2 793.1 684.1 793.3 683 793.9C681.9 794.5 681.2 795.5 680.7 796.8L689.2 799.4H689.4Z" fill="black"/>
<path d="M695.6 805.8C695.4 806.7 695.4 807.4 695.6 808C696 809 697 809.8 698.7 810.3C699.7 810.6 700.6 810.6 701.5 810.5C702.4 810.3 702.9 809.8 703.2 808.9C703.4 808.2 703.2 807.6 702.8 807.1C702.5 806.8 701.8 806.3 700.8 805.7L698.9 804.5C697.7 803.8 696.8 803.1 696.3 802.5C695.4 801.5 695.1 800.3 695.5 799.1C696 797.6 696.8 796.6 698.2 796C699.5 795.4 701.1 795.4 702.9 796C705.3 796.7 706.7 797.9 707.4 799.6C707.8 800.7 707.8 801.7 707.4 802.7L704.9 801.9C705 801.3 704.9 800.7 704.7 800.1C704.3 799.2 703.4 798.6 701.8 798.1C700.8 797.8 700 797.8 699.3 798C698.6 798.2 698.3 798.6 698.1 799.2C697.9 799.9 698.1 800.5 698.6 801.1C698.9 801.5 699.4 801.9 700.1 802.3L701.7 803.3C703.5 804.3 704.6 805.2 705.1 805.8C705.9 806.8 706.1 808 705.7 809.4C705.3 810.8 704.4 811.8 703 812.5C701.6 813.2 699.9 813.2 697.7 812.5C695.4 811.8 693.9 810.8 693.2 809.4C692.5 808 692.4 806.6 692.8 805.1L695.3 805.9L695.6 805.8Z" fill="black"/>
<path d="M712.1 799.3L714.7 800.1L710 815.5L707.4 814.7L712.1 799.3ZM713.8 793.5L716.4 794.3L715.5 797.2L712.9 796.4L713.8 793.5Z" fill="black"/>
<path d="M533.7 795C533.5 795.9 533.5 796.6 533.7 797.2C534.1 798.2 535.1 799 536.8 799.5C537.8 799.8 538.7 799.8 539.6 799.7C540.5 799.5 541.1 799 541.3 798.1C541.5 797.4 541.3 796.8 540.9 796.3C540.6 796 539.9 795.5 538.9 794.9L537 793.7C535.8 793 534.9 792.3 534.4 791.7C533.5 790.7 533.2 789.5 533.6 788.3C534.1 786.8 534.9 785.8 536.3 785.2C537.6 784.6 539.2 784.6 541 785.2C543.4 785.9 544.8 787.1 545.5 788.8C545.9 789.9 545.9 790.9 545.5 791.9L543 791.1C543.1 790.5 543 789.9 542.8 789.3C542.4 788.4 541.5 787.8 539.9 787.3C538.9 787 538.1 787 537.4 787.2C536.7 787.4 536.4 787.8 536.2 788.4C536 789.1 536.2 789.7 536.7 790.3C537 790.7 537.5 791.1 538.2 791.5L539.8 792.5C541.6 793.5 542.7 794.4 543.2 795C544 796 544.2 797.2 543.8 798.6C543.4 800 542.5 801 541.1 801.7C539.7 802.4 538 802.4 535.8 801.7C533.5 801 532 800 531.3 798.6C530.6 797.2 530.5 795.8 530.9 794.3L533.4 795.1L533.7 795Z" fill="black"/>
<path d="M559.6 791.8C560.5 792.6 561 793.5 561.3 794.5C561.6 795.4 561.6 796.5 561.5 797.5C561.5 798.3 561.2 799.4 560.7 801L549.5 797.6C549.1 799.2 549 800.6 549.5 801.7C550 802.8 550.8 803.7 552.3 804.1C553.6 804.5 554.8 804.4 555.9 803.7C556.5 803.3 557 802.8 557.4 802.2L559.9 803C559.7 803.5 559.2 804.1 558.7 804.7C558.2 805.3 557.5 805.7 556.9 806C555.9 806.5 554.7 806.8 553.5 806.7C552.8 806.7 552.1 806.5 551.3 806.3C549.4 805.7 548 804.5 547.1 802.7C546.2 800.9 546.1 798.7 546.9 796.2C547.7 793.7 548.9 791.9 550.7 790.8C552.5 789.7 554.5 789.4 556.7 790.1C557.8 790.4 558.8 791 559.6 791.8ZM558.7 798.1C558.9 796.9 559 796 558.7 795.2C558.4 793.7 557.4 792.7 555.7 792.2C554.5 791.8 553.4 792 552.3 792.6C551.2 793.2 550.5 794.2 550 795.5L558.5 798.1H558.7Z" fill="black"/>
<path d="M576 796.8C576.9 797.6 577.4 798.5 577.7 799.5C578 800.4 578 801.5 577.9 802.5C577.9 803.3 577.6 804.4 577.1 806L565.9 802.6C565.5 804.2 565.4 805.6 565.9 806.7C566.4 807.8 567.2 808.7 568.7 809.1C570 809.5 571.2 809.4 572.3 808.7C572.9 808.3 573.4 807.8 573.8 807.2L576.3 808C576.1 808.5 575.6 809.1 575.1 809.7C574.6 810.3 573.9 810.7 573.3 811C572.3 811.5 571.1 811.8 569.9 811.7C569.2 811.7 568.5 811.5 567.7 811.3C565.8 810.7 564.4 809.5 563.5 807.7C562.6 805.9 562.5 803.7 563.3 801.2C564.1 798.7 565.3 796.9 567.1 795.8C568.9 794.7 570.9 794.4 573.1 795.1C574.2 795.4 575.2 796 576 796.8ZM575.1 803.2C575.3 802 575.4 801.1 575.1 800.3C574.8 798.8 573.8 797.8 572.1 797.3C570.9 796.9 569.8 797.1 568.7 797.7C567.6 798.3 566.9 799.3 566.4 800.6L574.9 803.2H575.1Z" fill="black"/>
<path d="M598.8 797L601.4 797.8L594.9 819L592.3 818.2L598.8 797Z" fill="black"/>
<path d="M603.5 804.8L606.1 805.6L601.4 821L598.8 820.2L603.5 804.8ZM605.3 799L607.9 799.8L607 802.7L604.4 801.9L605.3 799Z" fill="black"/>
<path d="M612.7 802.4C613.6 801.7 614.9 801.6 616.6 802.1C616.8 802.1 616.9 802.2 617.1 802.3C617.3 802.4 617.5 802.4 617.7 802.5L617 804.9C616.7 804.9 616.5 804.7 616.4 804.7C616.3 804.7 616.2 804.7 616.1 804.6C615.3 804.4 614.8 804.4 614.5 804.8C614.2 805.2 613.8 806.2 613.3 807.8L615.9 808.6L615.3 810.6L612.7 809.8L608.6 823.1L606 822.3L610.1 809L607.9 808.3L608.5 806.3L610.7 807L611.4 804.6C611.8 803.5 612.2 802.8 612.7 802.4Z" fill="black"/>
<path d="M627.699 812.6C628.599 813.4 629.1 814.3 629.4 815.3C629.7 816.2 629.699 817.3 629.599 818.3C629.599 819.1 629.299 820.2 628.799 821.8L617.599 818.4C617.199 820 617.099 821.4 617.599 822.5C618.099 823.6 618.9 824.5 620.4 824.9C621.7 825.3 622.899 825.2 623.999 824.5C624.599 824.1 625.099 823.6 625.499 823L627.999 823.8C627.799 824.3 627.299 824.9 626.799 825.5C626.299 826.1 625.599 826.5 624.999 826.8C623.999 827.3 622.799 827.6 621.599 827.5C620.899 827.5 620.2 827.3 619.4 827.1C617.5 826.5 616.099 825.3 615.199 823.5C614.299 821.7 614.199 819.5 614.999 817C615.799 814.5 616.999 812.7 618.799 811.6C620.599 810.5 622.599 810.2 624.799 810.9C625.899 811.2 626.899 811.8 627.699 812.6ZM626.799 819C626.999 817.8 627.099 816.9 626.799 816.1C626.499 814.6 625.499 813.6 623.799 813.1C622.599 812.7 621.5 812.9 620.4 813.5C619.3 814.1 618.599 815.1 618.099 816.4L626.599 819H626.799Z" fill="black"/>
<path d="M648.7 818.7L651.3 819.5L646.6 834.9L644 834.1L648.7 818.7ZM650.5 812.9L653.1 813.7L652.2 816.6L649.6 815.8L650.5 812.9Z" fill="black"/>
<path d="M655.3 820.6L657.8 821.4L657.1 823.6C658.1 822.9 659.1 822.5 660 822.4C660.9 822.3 661.9 822.4 662.9 822.6C665.1 823.3 666.3 824.5 666.6 826.3C666.8 827.3 666.6 828.5 666.1 830.1L663.1 840L660.5 839.2L663.5 829.5C663.8 828.6 663.9 827.8 663.8 827.1C663.6 826 662.9 825.3 661.7 824.9C661.1 824.7 660.6 824.6 660.1 824.6C659.3 824.6 658.6 824.8 657.8 825.3C657.2 825.7 656.8 826.1 656.5 826.6C656.2 827.1 655.9 827.9 655.6 828.9L653.1 837L650.5 836.2L655.2 820.8L655.3 820.6Z" fill="black"/>
<path d="M692 838.5C692.6 838.5 693.1 838.5 693.4 838.1C693.6 837.9 693.7 837.6 693.9 837.1C694.2 836.2 694.1 835.5 693.6 834.9C693.1 834.3 692.3 833.8 691.1 833.5C689.8 833.1 688.7 833.2 687.9 833.7C687.5 834 687.1 834.5 686.7 835.3L684.3 834.6C684.9 832.7 686 831.6 687.4 831.2C688.8 830.8 690.3 830.9 691.9 831.3C693.7 831.8 695.1 832.6 696 833.7C696.9 834.7 697.1 836 696.7 837.4L694 846.3C694 846.6 694 846.8 694 847C694 847.2 694.3 847.3 694.6 847.5C694.7 847.5 694.8 847.5 695 847.5C695.2 847.5 695.3 847.5 695.5 847.5L694.9 849.4C694.5 849.4 694.1 849.4 693.9 849.4C693.7 849.4 693.4 849.3 693 849.2C692.1 848.9 691.5 848.4 691.3 847.7C691.2 847.3 691.2 846.8 691.3 846.1C690.6 846.6 689.6 847 688.5 847.2C687.4 847.4 686.2 847.3 685 847C683.6 846.6 682.5 845.8 681.9 844.6C681.3 843.4 681.1 842.2 681.5 840.9C681.9 839.5 682.7 838.5 683.9 838C685.1 837.5 686.4 837.4 687.9 837.6L692.2 838.4L692 838.5ZM684.4 843.9C684.8 844.5 685.4 844.9 686.2 845.1C687.1 845.4 688.1 845.4 689 845.3C690.7 845 691.7 844.1 692.2 842.5L692.8 840.4C692.4 840.4 692 840.6 691.4 840.5C690.8 840.4 690.3 840.5 689.8 840.3L688.2 840C687.2 839.8 686.4 839.8 685.9 840C685 840.2 684.3 840.8 684 841.8C683.8 842.6 683.9 843.2 684.3 843.8L684.4 843.9Z" fill="black"/>
<path d="M525.8 819.7L525 832.8L531.7 821.6L534.6 822.5L533.9 835.5L540.8 824.4L543.4 825.2L534.2 839.3L531.5 838.5L532 825.6L525.3 836.6L522.6 835.8L522.9 819L525.7 819.9L525.8 819.7Z" fill="black"/>
<path d="M552.3 834.5C552.9 834.5 553.4 834.5 553.7 834.1C553.9 833.9 554 833.6 554.2 833.1C554.5 832.2 554.4 831.5 553.9 830.9C553.4 830.3 552.6 829.8 551.4 829.5C550.1 829.1 549 829.2 548.2 829.7C547.8 830 547.4 830.5 547 831.3L544.6 830.6C545.2 828.7 546.3 827.6 547.7 827.2C549.1 826.8 550.6 826.9 552.2 827.3C554 827.8 555.4 828.6 556.3 829.7C557.2 830.7 557.4 832 557 833.4L554.3 842.3C554.3 842.6 554.3 842.8 554.3 843C554.3 843.2 554.6 843.3 554.9 843.5C555 843.5 555.1 843.5 555.3 843.5C555.5 843.5 555.6 843.5 555.8 843.5L555.2 845.4C554.8 845.4 554.4 845.4 554.2 845.4C554 845.4 553.7 845.3 553.3 845.2C552.4 844.9 551.9 844.4 551.6 843.7C551.5 843.3 551.5 842.8 551.6 842.1C550.9 842.6 549.9 843 548.8 843.2C547.6 843.4 546.5 843.3 545.3 843C543.9 842.6 542.8 841.8 542.2 840.6C541.6 839.4 541.4 838.2 541.8 836.9C542.2 835.5 543 834.5 544.2 834C545.4 833.5 546.7 833.4 548.2 833.6L552.5 834.4L552.3 834.5ZM544.7 839.9C545.1 840.5 545.7 840.9 546.5 841.1C547.4 841.4 548.4 841.4 549.3 841.3C551 841 552 840.1 552.5 838.5L553.1 836.4C552.7 836.4 552.3 836.6 551.7 836.5C551.1 836.4 550.6 836.5 550.1 836.3L548.5 836C547.5 835.8 546.7 835.8 546.2 836C545.3 836.2 544.6 836.8 544.3 837.8C544.1 838.6 544.2 839.2 544.6 839.8L544.7 839.9Z" fill="black"/>
<path d="M572 833.9L574.9 834.8C574.2 835.7 572.7 837.7 570.4 840.8C568.6 843.2 567.2 845.1 566.1 846.6C563.4 850.1 561.6 852.2 560.7 852.8C559.8 853.5 558.6 853.6 557.1 853.1C556.7 853 556.5 852.9 556.3 852.8C556.1 852.8 555.9 852.6 555.6 852.4L556.3 850C556.7 850.3 557 850.4 557.2 850.5C557.4 850.6 557.6 850.7 557.7 850.7C558.2 850.9 558.5 850.9 558.8 850.7C559.1 850.7 559.3 850.5 559.6 850.3C559.6 850.3 560 849.9 560.5 849.3C561 848.7 561.4 848.2 561.6 847.9L560.8 830.3L563.7 831.2L564 845L572 833.7V833.9Z" fill="black"/>
<path d="M592.9 846.9C593.5 846.9 593.999 846.9 594.299 846.5C594.499 846.3 594.599 846 594.799 845.5C595.099 844.6 594.999 843.9 594.499 843.3C593.999 842.7 593.199 842.2 591.999 841.9C590.699 841.5 589.599 841.6 588.799 842.1C588.399 842.4 587.999 842.9 587.599 843.7L585.2 843C585.8 841.1 586.899 840 588.299 839.6C589.699 839.2 591.199 839.3 592.799 839.7C594.599 840.3 596 841 596.9 842.1C597.8 843.1 597.999 844.4 597.599 845.8L594.9 854.7C594.9 855 594.9 855.2 594.9 855.4C594.9 855.6 595.199 855.7 595.499 855.9C595.599 855.9 595.7 855.9 595.9 855.9C596.1 855.9 596.2 855.9 596.4 855.9L595.799 857.8C595.399 857.8 594.999 857.8 594.799 857.8C594.599 857.8 594.3 857.7 593.9 857.6C593 857.3 592.4 856.8 592.2 856.1C592.1 855.7 592.1 855.2 592.2 854.5C591.5 855 590.5 855.4 589.4 855.6C588.2 855.8 587.1 855.7 585.9 855.4C584.5 855 583.399 854.2 582.799 853C582.199 851.8 582 850.6 582.4 849.3C582.8 847.9 583.599 846.9 584.799 846.4C585.899 845.9 587.299 845.8 588.799 846L593.099 846.8L592.9 846.9ZM585.299 852.3C585.699 852.9 586.299 853.3 587.099 853.5C587.999 853.8 589 853.8 589.9 853.7C591.6 853.4 592.599 852.5 593.099 850.9L593.7 848.8C593.3 848.9 592.899 849 592.299 848.9C591.699 848.8 591.2 848.9 590.7 848.7L589.099 848.4C588.099 848.2 587.399 848.2 586.799 848.4C585.899 848.6 585.2 849.2 584.9 850.2C584.7 851 584.8 851.6 585.2 852.2L585.299 852.3Z" fill="black"/>
<path d="M602.9 843.3L605.4 844.1L604.7 846.3C605.7 845.6 606.7 845.2 607.6 845.1C608.5 845 609.5 845.1 610.5 845.3C612.7 846 613.9 847.2 614.2 849C614.4 850 614.2 851.2 613.7 852.8L610.7 862.7L608.1 861.9L611.1 852.2C611.4 851.3 611.5 850.5 611.4 849.8C611.2 848.7 610.5 848 609.3 847.6C608.7 847.4 608.2 847.3 607.7 847.3C606.9 847.3 606.2 847.5 605.4 848C604.8 848.4 604.4 848.8 604.1 849.3C603.8 849.8 603.5 850.6 603.2 851.6L600.7 859.7L598.1 858.9L602.8 843.5L602.9 843.3Z" fill="black"/>
<path d="M627.7 851.4C628.1 851.8 628.4 852.5 628.8 853.4L631.2 845.6L633.7 846.4L627.2 867.6L624.9 866.9L625.6 864.7C624.7 865.5 623.8 865.9 622.8 866.1C621.8 866.3 620.8 866.1 619.8 865.9C618.1 865.4 616.8 864.2 616 862.4C615.2 860.6 615.2 858.4 615.9 856.1C616.6 853.9 617.7 852.1 619.4 850.8C621.1 849.5 622.9 849.2 625.1 849.8C626.3 850.2 627.2 850.7 627.8 851.5L627.7 851.4ZM618.3 861.2C618.7 862.5 619.6 863.4 621.1 863.9C622.3 864.3 623.4 864.1 624.5 863.2C625.6 862.4 626.4 861 627 859.1C627.6 857.1 627.6 855.6 627.1 854.4C626.6 853.2 625.8 852.4 624.6 852.1C623.3 851.7 622.1 851.9 621 852.6C619.9 853.3 619 854.7 618.4 856.6C617.9 858.3 617.8 859.8 618.2 861.1L618.3 861.2Z" fill="black"/>
<path d="M647.1 852.1L649.7 852.9L648.4 857.2L650.9 858L650.2 860.1L647.7 859.3L644.6 869.4C644.4 869.9 644.6 870.4 644.8 870.6C645 870.8 645.3 870.9 645.8 871.1C645.9 871.1 646.1 871.1 646.2 871.2C646.4 871.2 646.5 871.2 646.7 871.2L646.1 873.3C645.8 873.3 645.4 873.3 645.1 873.3C644.8 873.3 644.4 873.1 644 873C642.8 872.6 642.1 872.1 641.8 871.3C641.5 870.5 641.6 869.7 641.8 868.7L644.9 858.5L642.8 857.9L643.5 855.8L645.6 856.4L646.9 852.1H647.1Z" fill="black"/>
<path d="M655.199 853L657.799 853.8L655.399 861.7C656.199 861.1 656.999 860.7 657.599 860.6C658.599 860.3 659.699 860.4 660.999 860.7C663.199 861.4 664.499 862.6 664.799 864.4C664.999 865.4 664.799 866.6 664.399 868.2L661.399 878.1L658.699 877.3L661.699 867.6C661.999 866.5 662.199 865.6 661.999 865C661.799 864 660.999 863.3 659.699 862.9C658.599 862.6 657.499 862.6 656.399 863.1C655.299 863.6 654.399 864.8 653.799 866.9L651.299 875.1L648.699 874.3L655.199 853.1V853Z" fill="black"/>
<path d="M669.899 863.9L672.499 864.7L667.799 880.1L665.199 879.3L669.899 863.9ZM671.699 858.1L674.299 858.9L673.399 861.8L670.799 861L671.699 858.1Z" fill="black"/>
<path d="M674.8 876.9C674.6 877.8 674.6 878.5 674.8 879.1C675.2 880.1 676.2 880.9 677.9 881.4C678.9 881.7 679.8 881.7 680.7 881.6C681.6 881.4 682.1 880.9 682.4 880C682.6 879.3 682.4 878.7 682 878.2C681.7 877.9 681 877.4 680 876.8L678.1 875.6C676.9 874.9 676 874.2 675.5 873.6C674.6 872.6 674.3 871.4 674.7 870.2C675.2 868.7 676 867.7 677.4 867.1C678.8 866.5 680.3 866.5 682.1 867.1C684.5 867.8 685.9 869 686.6 870.7C687 871.8 687 872.8 686.6 873.8L684.1 873C684.2 872.4 684.1 871.8 683.9 871.2C683.5 870.3 682.5 869.7 681 869.2C680 868.9 679.2 868.9 678.5 869.1C677.9 869.3 677.5 869.7 677.3 870.3C677.1 871 677.3 871.6 677.8 872.2C678.1 872.6 678.6 873 679.3 873.4L680.9 874.4C682.7 875.4 683.8 876.3 684.3 876.9C685.1 877.9 685.3 879.1 684.9 880.5C684.5 881.9 683.6 882.9 682.2 883.6C680.8 884.3 679.1 884.3 676.9 883.6C674.6 882.9 673.1 881.9 672.4 880.5C671.7 879.1 671.6 877.7 672 876.2L674.5 877L674.8 876.9Z" fill="black"/>
<path d="M700.7 873.3L703.3 874.1L698.6 889.5L696 888.7L700.7 873.3ZM702.4 867.5L705 868.3L704.1 871.2L701.5 870.4L702.4 867.5Z" fill="black"/>
<path d="M705.5 886.3C705.3 887.2 705.3 887.9 705.5 888.5C705.9 889.5 706.9 890.3 708.6 890.8C709.6 891.1 710.5 891.1 711.4 891C712.3 890.8 712.9 890.3 713.1 889.4C713.3 888.7 713.1 888.1 712.7 887.6C712.4 887.3 711.7 886.8 710.7 886.2L708.8 885C707.6 884.3 706.7 883.6 706.2 883C705.3 882 705 880.8 705.4 879.6C705.9 878.1 706.7 877.1 708.1 876.5C709.4 875.9 711 875.9 712.8 876.5C715.2 877.2 716.6 878.4 717.3 880.1C717.7 881.2 717.7 882.2 717.3 883.2L714.8 882.4C714.9 881.8 714.8 881.2 714.6 880.6C714.2 879.7 713.2 879.1 711.7 878.6C710.7 878.3 709.9 878.3 709.2 878.5C708.5 878.7 708.2 879.1 708 879.7C707.8 880.4 708 881 708.5 881.6C708.8 882 709.3 882.4 710 882.8L711.6 883.8C713.4 884.8 714.5 885.7 715 886.3C715.8 887.3 716 888.5 715.6 889.9C715.2 891.3 714.3 892.3 712.9 893C711.5 893.7 709.8 893.7 707.6 893C705.3 892.3 703.8 891.3 703.1 889.9C702.4 888.5 702.3 887.1 702.7 885.6L705.2 886.4L705.5 886.3Z" fill="black"/>
<path d="M515 855.2L514.2 868.3L520.9 857.1L523.8 858L523.1 871L530 859.9L532.6 860.7L523.4 874.8L520.7 874L521.2 861.1L514.5 872.1L511.8 871.3L512.1 854.5L514.9 855.4L515 855.2Z" fill="black"/>
<path d="M544.5 864.7C545.4 865.5 545.9 866.4 546.2 867.4C546.5 868.3 546.5 869.4 546.4 870.4C546.4 871.2 546.1 872.3 545.6 873.9L534.4 870.5C534 872.1 533.9 873.5 534.4 874.6C534.9 875.7 535.7 876.6 537.2 877C538.5 877.4 539.8 877.3 540.8 876.6C541.4 876.2 541.9 875.7 542.3 875.1L544.8 875.9C544.6 876.4 544.1 877 543.6 877.6C543.1 878.2 542.4 878.6 541.8 878.9C540.8 879.4 539.7 879.7 538.4 879.6C537.7 879.6 537 879.4 536.2 879.2C534.3 878.6 532.9 877.4 532 875.6C531.1 873.8 531 871.6 531.8 869.1C532.6 866.6 533.8 864.8 535.6 863.7C537.4 862.6 539.4 862.3 541.6 863C542.7 863.3 543.7 863.9 544.5 864.7ZM543.6 871C543.8 869.8 543.9 868.9 543.6 868.1C543.3 866.6 542.3 865.6 540.6 865.1C539.4 864.7 538.3 864.9 537.2 865.5C536.1 866.1 535.4 867.1 534.9 868.4L543.4 871H543.6Z" fill="black"/>
<path d="M568.9 872.6C569.7 873.8 569.9 875.4 569.5 877.6L567 876.8C567.1 875.8 567 874.9 566.7 874.1C566.3 873.3 565.6 872.7 564.4 872.3C562.7 871.8 561.3 872.3 560.1 873.6C559.3 874.5 558.7 875.7 558.2 877.3C557.7 878.8 557.7 880.3 558 881.5C558.3 882.8 559.2 883.6 560.6 884C561.7 884.3 562.6 884.3 563.5 883.8C564.3 883.3 565 882.6 565.6 881.5L568.1 882.3C567.2 884.3 566 885.5 564.6 886.1C563.2 886.7 561.5 886.7 559.7 886.1C557.7 885.5 556.3 884.3 555.5 882.4C554.7 880.5 554.7 878.5 555.4 876.3C556.2 873.6 557.5 871.7 559.3 870.6C561.1 869.5 563 869.3 565 869.9C566.7 870.4 568 871.3 568.9 872.5V872.6Z" fill="black"/>
<path d="M580.1 881.8C580.7 881.8 581.2 881.8 581.5 881.4C581.7 881.2 581.8 880.9 582 880.4C582.3 879.5 582.2 878.8 581.7 878.2C581.2 877.6 580.4 877.1 579.2 876.8C577.9 876.4 576.8 876.5 576 877C575.6 877.3 575.2 877.8 574.8 878.6L572.4 877.9C573 876 574.1 874.9 575.5 874.5C576.9 874.1 578.4 874.2 580 874.6C581.8 875.1 583.2 875.9 584.1 877C585 878 585.3 879.3 584.8 880.8L582.1 889.7C582.1 890 582.1 890.2 582.1 890.4C582.1 890.6 582.4 890.7 582.7 890.9C582.8 890.9 582.9 890.9 583.1 890.9C583.3 890.9 583.4 890.9 583.6 890.9L583 892.8C582.6 892.8 582.2 892.8 582 892.8C581.8 892.8 581.5 892.7 581.1 892.6C580.2 892.3 579.6 891.8 579.4 891.1C579.3 890.7 579.3 890.2 579.4 889.5C578.7 890 577.7 890.4 576.6 890.6C575.4 890.8 574.3 890.7 573.1 890.4C571.7 890 570.6 889.2 570 888C569.4 886.8 569.2 885.6 569.6 884.3C570 882.9 570.8 881.9 572 881.4C573.1 880.9 574.5 880.8 576 881L580.3 881.8H580.1ZM572.5 887.1C572.9 887.7 573.5 888.1 574.3 888.3C575.2 888.6 576.2 888.6 577.1 888.5C578.8 888.2 579.8 887.3 580.3 885.7L580.9 883.6C580.5 883.6 580.1 883.8 579.5 883.7C578.9 883.6 578.4 883.7 577.9 883.5L576.3 883.2C575.3 883 574.5 883 574 883.2C573.1 883.4 572.4 884 572.1 885C571.9 885.8 572 886.4 572.4 887L572.5 887.1Z" fill="black"/>
<path d="M590.1 878.2L592.6 879L591.9 881.2C592.9 880.5 593.9 880.1 594.8 880C595.7 879.9 596.7 880 597.7 880.2C599.9 880.9 601.1 882.1 601.4 883.9C601.6 884.9 601.4 886.1 600.9 887.7L597.9 897.6L595.3 896.8L598.3 887.1C598.6 886.2 598.7 885.4 598.6 884.7C598.4 883.6 597.7 882.9 596.5 882.5C595.9 882.3 595.4 882.2 594.9 882.2C594.1 882.2 593.4 882.4 592.6 882.9C592 883.3 591.6 883.7 591.3 884.2C591 884.7 590.7 885.5 590.4 886.5L587.9 894.6L585.3 893.8L590 878.4L590.1 878.2Z" fill="black"/>
<path d="M615.1 885.8L614.3 898.9L621 887.7L623.9 888.6L623.2 901.6L630.1 890.5L632.7 891.3L623.5 905.4L620.8 904.6L621.3 891.7L614.6 902.7L611.9 901.9L612.2 885.1L615 886L615.1 885.8Z" fill="black"/>
<path d="M645.9 896.9C646.9 898.6 646.9 900.8 646.2 903.4C645.4 905.9 644.2 907.8 642.5 909C640.8 910.2 638.7 910.5 636.2 909.7C634.1 909 632.6 907.8 631.8 906C631 904.2 631 902.1 631.8 899.7C632.6 897.1 633.9 895.2 635.7 894.1C637.5 893 639.5 892.7 641.7 893.4C643.7 894 645.1 895.2 646.1 896.9H645.9ZM641.1 906.7C642.1 905.6 642.9 904.2 643.4 902.7C643.8 901.3 644 900 643.8 899C643.5 897.4 642.5 896.3 640.7 895.7C639.1 895.2 637.8 895.5 636.7 896.5C635.6 897.5 634.8 898.8 634.3 900.5C633.8 902.1 633.7 903.6 634.1 904.9C634.5 906.2 635.4 907.1 637 907.6C638.7 908.1 640.1 907.8 641.1 906.7Z" fill="black"/>
<path d="M651.7 897L654.2 897.8L653.4 900.5C653.8 900 654.4 899.6 655.5 899.1C656.6 898.6 657.5 898.5 658.6 898.8C658.6 898.8 658.7 898.8 658.8 898.8C658.9 898.8 659.1 898.9 659.4 899L658.6 901.7C658.4 901.7 658.3 901.6 658.2 901.5C658.1 901.4 657.9 901.5 657.8 901.3C656.5 900.9 655.4 901 654.4 901.6C653.4 902.2 652.8 903.1 652.5 904.2L649.8 913.1L647.2 912.3L651.9 896.9L651.7 897Z" fill="black"/>
<path d="M663.1 894.2L665.6 895L661.8 907.3L670.5 902.8L673.8 903.8L666.1 907.7L669.4 919.3L666.1 918.3L663.6 909L660.8 910.4L659 916.2L656.5 915.4L663 894.2H663.1Z" fill="black"/>
<path d="M694.3 911.7C695.3 913.4 695.3 915.6 694.6 918.2C693.8 920.7 692.6 922.6 690.9 923.8C689.2 925.1 687.1 925.3 684.6 924.5C682.5 923.8 681 922.6 680.2 920.8C679.4 919 679.4 916.9 680.2 914.5C681 911.9 682.3 910 684.1 908.9C685.9 907.8 687.9 907.5 690.1 908.2C692.1 908.8 693.5 910 694.5 911.7H694.3ZM689.6 921.5C690.6 920.4 691.4 919 691.9 917.5C692.3 916.1 692.5 914.8 692.3 913.8C692 912.2 691 911.1 689.2 910.5C687.6 910 686.3 910.3 685.2 911.3C684.1 912.3 683.3 913.6 682.8 915.3C682.3 916.9 682.2 918.4 682.6 919.7C683 921 683.9 921.9 685.5 922.4C687.2 922.9 688.6 922.6 689.6 921.5Z" fill="black"/>
<path d="M700.1 911.8L702.6 912.6L701.9 914.8C702.9 914.1 703.9 913.7 704.8 913.6C705.7 913.5 706.7 913.6 707.7 913.8C709.9 914.5 711.1 915.7 711.4 917.5C711.6 918.5 711.4 919.7 710.9 921.3L707.9 931.2L705.3 930.4L708.3 920.7C708.6 919.8 708.7 919 708.6 918.3C708.4 917.2 707.7 916.5 706.5 916.1C705.9 915.9 705.4 915.8 704.9 915.8C704.1 915.8 703.4 916 702.6 916.5C702 916.9 701.6 917.3 701.3 917.8C701 918.3 700.7 919.1 700.4 920.1L697.9 928.2L695.3 927.4L700 912L700.1 911.8Z" fill="black"/>
<path d="M511.2 893.3C511.6 893.7 511.9 894.4 512.3 895.3L514.7 887.5L517.2 888.3L510.7 909.5L508.4 908.8L509.1 906.6C508.2 907.4 507.3 907.8 506.3 908C505.3 908.2 504.3 908 503.3 907.8C501.6 907.3 500.3 906.1 499.5 904.3C498.7 902.5 498.6 900.3 499.4 898C500.1 895.8 501.3 894 502.9 892.7C504.5 891.4 506.4 891.1 508.6 891.7C509.8 892.1 510.7 892.6 511.3 893.4L511.2 893.3ZM501.9 903.1C502.3 904.4 503.2 905.3 504.8 905.8C506 906.2 507.1 906 508.2 905.1C509.3 904.2 510.1 902.9 510.7 901C511.3 899 511.3 897.5 510.8 896.3C510.3 895.1 509.5 894.3 508.3 894C507 893.6 505.8 893.8 504.7 894.5C503.6 895.2 502.7 896.6 502.1 898.5C501.6 900.2 501.5 901.6 501.9 903V903.1Z" fill="black"/>
<path d="M519.3 895.3L521.9 896.1L517.2 911.5L514.6 910.7L519.3 895.3ZM521.1 889.5L523.7 890.3L522.8 893.2L520.2 892.4L521.1 889.5Z" fill="black"/>
<path d="M525.9 897.3L528.4 898.1L527.7 900.3C528.7 899.6 529.7 899.2 530.6 899.1C531.5 899 532.5 899.1 533.5 899.3C535.7 900 536.9 901.2 537.2 903C537.4 904 537.2 905.2 536.7 906.8L533.7 916.7L531.1 915.9L534.1 906.2C534.4 905.3 534.5 904.5 534.4 903.8C534.2 902.7 533.5 902 532.3 901.6C531.7 901.4 531.2 901.3 530.7 901.3C529.9 901.3 529.2 901.5 528.4 902C527.8 902.4 527.4 902.8 527.1 903.3C526.8 903.8 526.5 904.6 526.2 905.6L523.7 913.7L521.1 912.9L525.8 897.5L525.9 897.3Z" fill="black"/>
<path d="M550.7 905.5C551.1 906 551.4 906.6 551.7 907.4L552.3 905.4L554.7 906.1L550.4 920.1C549.8 922.1 549 923.5 548.1 924.5C546.4 926.3 544 926.7 541.1 925.8C539.4 925.3 538.2 924.5 537.3 923.4C536.4 922.3 536.1 920.9 536.5 919.3L539.1 920.1C539.1 920.8 539.1 921.4 539.4 921.9C539.8 922.7 540.6 923.2 541.9 923.6C543.9 924.2 545.4 923.9 546.4 922.7C547 922 547.6 920.6 548.2 918.4C547.4 919 546.6 919.4 545.8 919.6C545 919.8 543.9 919.6 542.7 919.3C541 918.8 539.8 917.8 538.9 916.2C538 914.6 538 912.5 538.9 909.7C539.7 907.1 540.9 905.3 542.6 904.2C544.3 903.1 546 902.9 547.8 903.4C549 903.8 550 904.4 550.7 905.3V905.5ZM550.2 908.4C549.7 907.2 548.8 906.5 547.6 906.1C545.8 905.5 544.3 906.1 543.1 907.5C542.5 908.3 541.9 909.5 541.5 910.9C541 912.6 540.9 914.1 541.3 915.2C541.7 916.3 542.5 917.1 543.7 917.4C545.5 918 547.1 917.5 548.4 916.1C549.1 915.3 549.7 914.2 550.1 913C550.7 911.1 550.7 909.5 550.2 908.4Z" fill="black"/>
<path d="M578.7 920.1C579.3 920.1 579.8 920.1 580.1 919.7C580.3 919.5 580.4 919.2 580.6 918.7C580.9 917.8 580.8 917.1 580.3 916.5C579.8 915.9 579 915.4 577.8 915.1C576.5 914.7 575.4 914.8 574.6 915.3C574.2 915.6 573.8 916.1 573.4 916.9L571 916.2C571.6 914.3 572.7 913.2 574.1 912.8C575.5 912.4 577 912.5 578.6 912.9C580.4 913.4 581.8 914.2 582.7 915.3C583.6 916.3 583.8 917.6 583.4 919L580.7 927.9C580.7 928.2 580.7 928.4 580.7 928.6C580.7 928.8 581 928.9 581.3 929.1C581.4 929.1 581.5 929.1 581.7 929.1C581.9 929.1 582 929.1 582.2 929.1L581.6 931C581.2 931 580.8 931 580.6 931C580.4 931 580.1 930.9 579.7 930.8C578.8 930.5 578.2 930 578 929.3C577.9 928.9 577.9 928.4 578 927.7C577.3 928.2 576.3 928.6 575.2 928.8C574.1 929 572.9 928.9 571.7 928.6C570.3 928.2 569.2 927.4 568.6 926.2C568 925 567.8 923.8 568.2 922.5C568.6 921.1 569.4 920.1 570.6 919.6C571.8 919.1 573.1 919 574.6 919.2L578.9 920L578.7 920.1ZM571.1 925.4C571.5 926 572.1 926.4 572.9 926.6C573.8 926.9 574.8 926.9 575.7 926.8C577.4 926.5 578.4 925.6 578.9 924L579.5 921.9C579.1 921.9 578.7 922.1 578.1 922C577.5 921.9 577 922 576.5 921.8L574.9 921.5C573.9 921.3 573.1 921.3 572.6 921.5C571.7 921.7 571 922.3 570.7 923.3C570.5 924.1 570.6 924.7 571 925.3L571.1 925.4Z" fill="black"/>
<path d="M603.4 921L602.6 934.1L609.3 922.9L612.2 923.8L611.5 936.8L618.4 925.7L621 926.5L611.8 940.6L609.1 939.8L609.6 926.9L602.9 937.9L600.2 937.1L600.5 920.3L603.3 921.2L603.4 921Z" fill="black"/>
<path d="M630 935.8C630.6 935.8 631.1 935.8 631.4 935.4C631.6 935.2 631.7 934.9 631.9 934.4C632.2 933.5 632.1 932.8 631.6 932.2C631.1 931.6 630.3 931.1 629.1 930.8C627.8 930.4 626.7 930.5 625.9 931C625.5 931.3 625.1 931.8 624.7 932.6L622.3 931.9C622.9 930 624 928.9 625.4 928.5C626.8 928.1 628.3 928.2 629.9 928.6C631.7 929.1 633.1 929.9 634 931C634.9 932 635.1 933.3 634.7 934.7L632 943.6C632 943.9 632 944.1 632 944.3C632 944.5 632.3 944.6 632.6 944.8C632.7 944.8 632.8 944.8 633 944.8C633.2 944.8 633.3 944.8 633.5 944.8L632.9 946.7C632.5 946.7 632.1 946.7 631.9 946.7C631.7 946.7 631.4 946.6 631 946.5C630.1 946.2 629.5 945.7 629.3 945C629.2 944.6 629.2 944.1 629.3 943.4C628.6 943.9 627.6 944.3 626.5 944.5C625.4 944.7 624.2 944.6 623 944.3C621.6 943.9 620.5 943.1 619.9 941.9C619.3 940.7 619.1 939.5 619.5 938.2C619.9 936.8 620.7 935.8 621.9 935.3C623.1 934.8 624.4 934.7 625.9 934.9L630.2 935.7L630 935.8ZM622.3 941.1C622.7 941.7 623.3 942.1 624.1 942.3C625 942.6 626 942.6 626.9 942.5C628.6 942.2 629.6 941.3 630.1 939.7L630.7 937.6C630.3 937.7 629.9 937.8 629.3 937.7C628.7 937.6 628.2 937.7 627.7 937.5L626.1 937.2C625.1 937 624.3 937 623.8 937.2C622.9 937.4 622.2 938 621.9 939C621.7 939.8 621.8 940.4 622.2 941L622.3 941.1Z" fill="black"/>
<path d="M649.6 935.1L652.5 936C651.8 936.9 650.3 938.9 648 942C646.2 944.4 644.8 946.3 643.7 947.8C641 951.3 639.2 953.4 638.3 954C637.4 954.6 636.2 954.8 634.7 954.3C634.3 954.2 634.1 954.1 633.9 954C633.7 953.9 633.5 953.8 633.2 953.6L633.9 951.2C634.3 951.5 634.6 951.6 634.8 951.7C635 951.8 635.2 951.9 635.3 951.9C635.8 952.1 636.1 952.1 636.4 951.9C636.7 951.9 636.9 951.7 637.2 951.5C637.2 951.5 637.6 951.1 638.1 950.5C638.6 949.9 639 949.4 639.2 949.1L638.4 931.5L641.3 932.4L641.6 946.2L649.6 934.9V935.1Z" fill="black"/>
<path d="M670.1 936.7L672.7 937.5L671.4 941.8L673.9 942.6L673.2 944.7L670.7 943.9L667.6 954C667.4 954.5 667.6 955 667.8 955.2C668 955.4 668.3 955.5 668.8 955.7C668.9 955.7 669.1 955.7 669.2 955.8C669.4 955.8 669.5 955.8 669.7 955.8L669.1 957.9C668.8 957.9 668.4 957.9 668.1 957.9C667.8 957.9 667.4 957.7 667 957.6C665.8 957.2 665.1 956.7 664.8 955.9C664.5 955.1 664.6 954.3 664.8 953.3L667.9 943.1L665.8 942.5L666.5 940.4L668.6 941L669.9 936.7H670.1Z" fill="black"/>
<path d="M687.2 948.3C688.2 950 688.2 952.2 687.5 954.8C686.7 957.3 685.5 959.2 683.8 960.4C682.1 961.7 680 961.9 677.5 961.1C675.4 960.4 673.9 959.2 673.1 957.4C672.3 955.6 672.3 953.5 673.1 951.1C673.9 948.5 675.2 946.6 677 945.5C678.8 944.4 680.8 944.1 683 944.8C685 945.4 686.4 946.6 687.4 948.3H687.2ZM682.4 958.1C683.4 957 684.2 955.6 684.7 954.1C685.1 952.7 685.3 951.4 685.1 950.4C684.8 948.8 683.8 947.7 682 947.1C680.4 946.6 679.1 946.9 678 947.9C676.9 948.9 676.1 950.2 675.6 951.9C675.1 953.5 675 955 675.4 956.3C675.8 957.6 676.7 958.5 678.3 959C680 959.5 681.4 959.2 682.4 958.1Z" fill="black"/>
<path d="M492.1 925.7L494.7 926.5L494 928.7C494.9 928.1 495.6 927.7 496.2 927.5C497.2 927.2 498.3 927.2 499.4 927.5C500.6 927.9 501.5 928.5 502.1 929.3C502.4 929.8 502.6 930.4 502.8 931.2C503.6 930.5 504.5 930.1 505.4 930C506.3 929.8 507.2 930 508.2 930.2C510.3 930.8 511.5 932 511.7 933.7C511.9 934.6 511.7 935.8 511.3 937.1L508.2 947.4L505.5 946.6L508.8 935.9C509.1 934.9 509.1 934.1 508.7 933.5C508.3 933 507.7 932.6 507 932.3C506 932 505 932.1 504.1 932.5C503.1 933 502.4 934 502 935.6L499.2 944.6L496.6 943.8L499.7 933.7C500 932.7 500.1 931.9 500 931.3C499.8 930.5 499.2 929.9 498.1 929.5C497.1 929.2 496.1 929.3 495.1 929.8C494.1 930.3 493.2 931.6 492.6 933.6L490.1 941.8L487.5 941L492.2 925.6L492.1 925.7Z" fill="black"/>
<path d="M519.3 934L516.2 944.2C516 945 515.9 945.7 516 946.2C516.2 947.3 516.9 948 518.1 948.4C519.9 948.9 521.3 948.4 522.4 947.1C523 946.3 523.6 945.2 524 943.7L526.3 936.1L528.9 936.9L524.2 952.3L521.7 951.5L522.4 949.2C521.9 949.7 521.3 950 520.7 950.3C519.5 950.8 518.2 950.8 516.8 950.4C514.6 949.7 513.4 948.6 513.1 946.8C512.9 945.9 513.1 944.8 513.4 943.5L516.6 933L519.3 933.8V934Z" fill="black"/>
<path d="M533.1 938.2L535.6 939L534.9 941.2C535.9 940.5 536.9 940.1 537.8 940C538.7 939.8 539.7 940 540.7 940.2C542.9 940.9 544.1 942.1 544.4 943.9C544.6 944.9 544.4 946.1 543.9 947.7L540.9 957.6L538.3 956.8L541.3 947.1C541.6 946.2 541.7 945.4 541.6 944.7C541.4 943.6 540.7 942.9 539.5 942.5C538.9 942.3 538.4 942.2 537.9 942.2C537.1 942.2 536.4 942.4 535.6 942.9C535 943.3 534.6 943.7 534.3 944.2C534 944.7 533.7 945.5 533.4 946.5L530.9 954.6L528.3 953.8L533 938.4L533.1 938.2Z" fill="black"/>
<path d="M549.5 943.3L552.1 944.1L547.4 959.5L544.8 958.7L549.5 943.3ZM551.3 937.5L553.9 938.3L553 941.2L550.4 940.4L551.3 937.5Z" fill="black"/>
<path d="M566 949.2C566.8 950.4 567 952 566.6 954.2L564.1 953.4C564.2 952.4 564.1 951.5 563.8 950.7C563.5 949.9 562.7 949.3 561.5 948.9C559.8 948.4 558.4 948.9 557.2 950.2C556.4 951.1 555.8 952.3 555.3 953.9C554.8 955.4 554.8 956.9 555.1 958.1C555.4 959.4 556.3 960.2 557.7 960.6C558.8 960.9 559.7 960.9 560.6 960.4C561.4 959.9 562.1 959.2 562.7 958.1L565.2 958.9C564.3 960.9 563.1 962.1 561.7 962.7C560.3 963.3 558.6 963.3 556.8 962.7C554.8 962.1 553.4 960.9 552.6 959C551.8 957.1 551.8 955.1 552.5 952.9C553.3 950.2 554.6 948.3 556.4 947.2C558.2 946.1 560.1 945.9 562.1 946.5C563.8 947 565.1 947.9 566 949.1V949.2Z" fill="black"/>
<path d="M577.2 958.4C577.8 958.4 578.3 958.4 578.6 958C578.8 957.8 578.9 957.5 579.1 957C579.4 956.1 579.3 955.4 578.8 954.8C578.3 954.2 577.5 953.7 576.3 953.4C575 953 573.9 953.1 573.1 953.6C572.7 953.9 572.3 954.4 571.9 955.2L569.5 954.5C570.1 952.6 571.2 951.5 572.6 951.1C574 950.7 575.5 950.8 577.1 951.2C578.9 951.7 580.3 952.5 581.2 953.6C582.1 954.6 582.3 955.9 581.9 957.3L579.2 966.2C579.2 966.5 579.2 966.7 579.2 966.9C579.2 967.1 579.5 967.2 579.8 967.4C579.9 967.4 580 967.4 580.2 967.4C580.4 967.4 580.5 967.4 580.7 967.4L580.1 969.3C579.7 969.3 579.3 969.3 579.1 969.3C578.9 969.3 578.6 969.2 578.2 969.1C577.3 968.8 576.7 968.3 576.5 967.6C576.4 967.2 576.4 966.7 576.5 966C575.8 966.5 574.8 966.9 573.7 967.1C572.5 967.3 571.4 967.2 570.2 966.9C568.8 966.5 567.7 965.7 567.1 964.5C566.5 963.3 566.3 962.1 566.7 960.8C567.1 959.4 567.9 958.4 569.1 957.9C570.2 957.4 571.6 957.3 573.1 957.5L577.4 958.3L577.2 958.4ZM569.6 963.7C570 964.3 570.6 964.7 571.4 964.9C572.3 965.2 573.3 965.2 574.2 965.1C575.9 964.8 576.9 963.9 577.4 962.3L578 960.2C577.6 960.3 577.2 960.4 576.6 960.3C576 960.2 575.5 960.3 575 960.1L573.4 959.8C572.4 959.6 571.7 959.6 571.1 959.8C570.2 960 569.5 960.6 569.2 961.6C569 962.4 569.1 963 569.5 963.6L569.6 963.7Z" fill="black"/>
<path d="M589.1 950.6L591.7 951.4L590.4 955.7L592.9 956.5L592.2 958.6L589.7 957.8L586.6 967.9C586.4 968.4 586.6 968.9 586.8 969.1C587 969.3 587.3 969.4 587.8 969.6C587.9 969.6 588.1 969.6 588.2 969.7C588.4 969.7 588.5 969.7 588.7 969.8L588.1 971.9C587.8 971.9 587.4 971.9 587.1 971.9C586.8 971.9 586.4 971.7 586 971.6C584.8 971.2 584.1 970.7 583.8 969.9C583.5 969.1 583.6 968.3 583.8 967.3L586.9 957.1L584.8 956.5L585.5 954.4L587.6 955L588.9 950.7L589.1 950.6Z" fill="black"/>
<path d="M604.9 960.6C605.8 961.4 606.3 962.3 606.6 963.3C606.9 964.2 606.9 965.3 606.8 966.3C606.8 967.1 606.5 968.2 606 969.8L594.8 966.4C594.4 968 594.3 969.4 594.8 970.5C595.3 971.6 596.1 972.5 597.6 972.9C598.9 973.3 600.1 973.2 601.2 972.5C601.8 972.1 602.3 971.6 602.7 971L605.2 971.8C605 972.3 604.5 972.9 604 973.5C603.5 974.1 602.8 974.5 602.2 974.8C601.2 975.3 600 975.6 598.8 975.5C598.1 975.5 597.4 975.3 596.6 975.1C594.7 974.5 593.3 973.3 592.4 971.5C591.5 969.7 591.4 967.5 592.2 965C593 962.5 594.2 960.7 596 959.6C597.8 958.5 599.8 958.2 602 958.9C603.1 959.2 604.1 959.8 604.9 960.6ZM603.9 967C604.1 965.8 604.2 964.9 603.9 964.1C603.6 962.6 602.6 961.6 600.9 961.1C599.7 960.7 598.6 960.9 597.5 961.5C596.4 962.1 595.7 963.1 595.2 964.4L603.7 967H603.9Z" fill="black"/>
<path d="M621.9 960.7L624.5 961.5L623.2 965.8L625.7 966.6L625 968.7L622.5 967.9L619.4 978C619.2 978.5 619.399 979 619.599 979.2C619.799 979.4 620.099 979.5 620.599 979.7C620.699 979.7 620.9 979.7 621 979.8C621.2 979.8 621.3 979.8 621.5 979.8L620.9 981.9C620.6 981.9 620.2 981.9 619.9 981.9C619.6 981.9 619.2 981.7 618.8 981.6C617.6 981.2 616.899 980.7 616.599 979.9C616.299 979.1 616.399 978.3 616.599 977.3L619.7 967.1L617.599 966.5L618.3 964.4L620.4 965L621.7 960.7H621.9Z" fill="black"/>
<path d="M639 972.3C640 974 640 976.2 639.3 978.8C638.5 981.3 637.3 983.2 635.6 984.4C633.9 985.7 631.8 985.9 629.3 985.1C627.2 984.4 625.7 983.2 624.9 981.4C624.1 979.6 624.1 977.5 624.9 975.1C625.7 972.5 627 970.6 628.8 969.5C630.6 968.4 632.6 968.1 634.8 968.8C636.8 969.4 638.2 970.6 639.2 972.3H639ZM634.3 982.1C635.3 981 636.1 979.6 636.6 978.1C637 976.7 637.2 975.4 637 974.4C636.7 972.8 635.7 971.7 633.9 971.1C632.3 970.6 631 970.9 629.9 971.9C628.8 972.9 628 974.2 627.5 975.9C627 977.5 626.9 979 627.3 980.3C627.7 981.6 628.6 982.5 630.2 983C631.9 983.5 633.3 983.2 634.3 982.1Z" fill="black"/>
<path d="M653.1 975.6C653.5 976.1 653.8 976.7 654.1 977.5L654.7 975.5L657.1 976.2L652.8 990.2C652.2 992.2 651.4 993.6 650.5 994.6C648.8 996.4 646.4 996.8 643.5 995.9C641.8 995.4 640.6 994.6 639.7 993.5C638.8 992.4 638.5 991 638.9 989.4L641.5 990.2C641.5 990.9 641.5 991.5 641.8 992C642.2 992.8 643 993.3 644.3 993.7C646.3 994.3 647.8 994 648.8 992.8C649.4 992.1 650 990.7 650.7 988.5C649.9 989.1 649.1 989.5 648.3 989.7C647.5 989.9 646.4 989.7 645.2 989.4C643.5 988.9 642.3 987.9 641.4 986.3C640.5 984.7 640.5 982.6 641.4 979.8C642.2 977.2 643.4 975.4 645.1 974.3C646.8 973.2 648.6 973 650.3 973.5C651.5 973.9 652.5 974.5 653.2 975.4L653.1 975.6ZM652.6 978.5C652.1 977.3 651.2 976.6 650 976.2C648.2 975.6 646.7 976.2 645.5 977.6C644.9 978.4 644.3 979.6 643.9 981C643.4 982.7 643.3 984.2 643.7 985.3C644.1 986.4 644.9 987.2 646.1 987.5C647.9 988.1 649.5 987.6 650.8 986.2C651.5 985.4 652.1 984.3 652.5 983.1C653.1 981.2 653.1 979.6 652.6 978.5Z" fill="black"/>
<path d="M670.5 980.7C671.4 981.5 671.9 982.4 672.2 983.4C672.5 984.3 672.5 985.4 672.4 986.4C672.4 987.2 672.1 988.3 671.6 989.9L660.4 986.5C660 988.1 659.9 989.5 660.4 990.6C660.9 991.7 661.7 992.6 663.2 993C664.5 993.4 665.7 993.3 666.8 992.6C667.4 992.2 667.9 991.7 668.3 991.1L670.8 991.9C670.6 992.4 670.1 993 669.6 993.6C669.1 994.2 668.4 994.6 667.8 994.9C666.8 995.4 665.6 995.7 664.4 995.6C663.7 995.6 663 995.4 662.2 995.2C660.3 994.6 658.9 993.4 658 991.6C657.1 989.8 657 987.6 657.8 985.1C658.6 982.6 659.8 980.8 661.6 979.7C663.4 978.6 665.4 978.3 667.6 979C668.7 979.3 669.7 979.9 670.5 980.7ZM669.6 987.1C669.8 985.9 669.9 985 669.6 984.2C669.3 982.7 668.3 981.7 666.6 981.2C665.4 980.8 664.3 981 663.2 981.6C662.1 982.2 661.4 983.2 660.9 984.5L669.4 987.1H669.6Z" fill="black"/>
<path d="M679.4 978.3L682 979.1L680.7 983.4L683.2 984.2L682.5 986.3L680 985.5L676.9 995.6C676.7 996.1 676.899 996.6 677.099 996.8C677.299 997 677.599 997.1 678.099 997.3C678.199 997.3 678.4 997.3 678.5 997.4C678.6 997.5 678.8 997.4 679 997.4L678.4 999.5C678.1 999.5 677.7 999.5 677.4 999.5C677.1 999.5 676.7 999.3 676.3 999.2C675.1 998.8 674.399 998.3 674.099 997.5C673.799 996.7 673.899 995.9 674.099 994.9L677.2 984.7L675.099 984.1L675.8 982L677.9 982.6L679.2 978.3H679.4Z" fill="black"/>
<path d="M687.5 979.1L690.1 979.9L687.7 987.8C688.5 987.2 689.3 986.8 689.9 986.7C690.9 986.4 692 986.5 693.3 986.8C695.5 987.5 696.8 988.7 697.1 990.5C697.3 991.5 697.1 992.7 696.7 994.3L693.7 1004.2L691 1003.4L694 993.7C694.3 992.6 694.5 991.7 694.3 991.1C694.1 990.1 693.3 989.4 692 989C690.9 988.7 689.8 988.7 688.7 989.2C687.6 989.7 686.7 990.9 686.1 993L683.6 1001.2L681 1000.4L687.5 979.2V979.1Z" fill="black"/>
<path d="M711.6 993.3C712.5 994.1 713 995 713.3 996C713.6 996.9 713.6 998 713.5 999C713.5 999.8 713.2 1000.9 712.7 1002.5L701.5 999.1C701.1 1000.7 701 1002.1 701.5 1003.2C702 1004.3 702.8 1005.2 704.3 1005.6C705.6 1006 706.8 1005.9 707.9 1005.2C708.5 1004.8 709 1004.3 709.4 1003.7L711.9 1004.5C711.7 1005 711.2 1005.6 710.7 1006.2C710.2 1006.8 709.5 1007.2 708.9 1007.5C707.9 1008 706.7 1008.3 705.5 1008.2C704.8 1008.2 704.1 1008 703.3 1007.8C701.4 1007.2 700 1006 699.1 1004.2C698.2 1002.4 698.1 1000.2 698.9 997.7C699.7 995.2 700.9 993.4 702.7 992.3C704.5 991.2 706.5 990.9 708.7 991.6C709.8 991.9 710.8 992.5 711.6 993.3ZM710.7 999.6C710.9 998.4 711 997.5 710.7 996.7C710.4 995.2 709.4 994.2 707.7 993.7C706.5 993.3 705.4 993.5 704.3 994.1C703.2 994.7 702.5 995.7 702 997L710.5 999.6H710.7Z" fill="black"/>
</svg>